<svg viewBox="0 0 100 100" xmlns="http://www.w3.org/2000/svg" id="Blue-Scooter--Streamline-Ux">
  <desc>
    Blue Scooter Streamline Illustration: https://streamlinehq.com
  </desc>
  <path d="M11.128 50a40 40 0 1 0 80 0 40 40 0 1 0 -80 0Z" fill="#daedf7" stroke="#daedf7" stroke-linecap="round" stroke-linejoin="round" stroke-width="1"></path>
  <path d="M22.365 77.507a28.941 2.315 0 1 0 57.882 0 28.941 2.315 0 1 0 -57.882 0Z" fill="#45413c" opacity=".15" stroke-width="1"></path>
  <path d="M12.526 66.51a10.997 10.997 0 1 0 21.994 0 10.997 10.997 0 1 0 -21.994 0Z" fill="#87898c" stroke-width="1"></path>
  <path d="M14.171 72.3h18.7a10.952 10.952 0 0 0 1.085 -2.315h-20.87a10.952 10.952 0 0 0 1.085 2.315Z" fill="#45413c" stroke-width="1"></path>
  <path d="M12.526 66.51a10.997 10.997 0 1 0 21.994 0 10.997 10.997 0 1 0 -21.994 0Z" fill="none" stroke="#45413c" stroke-linecap="round" stroke-linejoin="round" stroke-width="1"></path>
  <path d="M17.156 66.51a6.367 6.367 0 1 0 12.734 0 6.367 6.367 0 1 0 -12.734 0Z" fill="#8ca4b8" stroke="#45413c" stroke-linecap="round" stroke-linejoin="round" stroke-width="1"></path>
  <path d="M63.286 26.967a1.446 1.446 0 0 1 -1.164 1.682L54.718 30a1.447 1.447 0 0 1 -0.517 -2.848L61.6 25.8a1.447 1.447 0 0 1 1.686 1.167Z" fill="#bf8256" stroke="#45413c" stroke-linecap="round" stroke-linejoin="round" stroke-width="1"></path>
  <path d="M10.789 58.406a2.316 2.316 0 0 1 -2.315 2.316H6.737a1.158 1.158 0 0 1 -1.157 -1.158v-2.315a1.157 1.157 0 0 1 1.157 -1.158h1.737a2.316 2.316 0 0 1 2.315 2.315Z" fill="#a6fbff" stroke="#45413c" stroke-linecap="round" stroke-linejoin="round" stroke-width="1"></path>
  <path d="M37.993 47.988H17.735a1.158 1.158 0 1 1 0 -2.316h20.258Z" fill="#adc4d9" stroke="#45413c" stroke-linecap="round" stroke-linejoin="round" stroke-width="1"></path>
  <path d="M66.538 66.143a6.945 6.945 0 0 1 -6.212 3.84H9.631a2.707 2.707 0 0 1 -2.68 -3.083 22 22 0 0 1 21.781 -18.912h21.4a1.749 1.749 0 0 1 0.7 3.352l-4.228 1.851a6.649 6.649 0 0 0 2.665 12.74h7.289a6.947 6.947 0 0 0 6.651 -4.943l5.12 -17L73.2 48.2l-1.061 6.737Z" fill="#a6fbff" stroke-width="1"></path>
  <path d="M28.25 50.255h21.4a1.749 1.749 0 0 1 1.523 0.889 1.75 1.75 0 0 0 -1.041 -3.156h-21.4A22 22 0 0 0 7.008 66.522 22.005 22.005 0 0 1 28.25 50.255Z" fill="#d9fdff" stroke-width="1"></path>
  <path d="M66.538 66.143a6.945 6.945 0 0 1 -6.212 3.84H9.631a2.707 2.707 0 0 1 -2.68 -3.083 22 22 0 0 1 21.781 -18.912h21.4a1.749 1.749 0 0 1 0.7 3.352l-4.228 1.851a6.649 6.649 0 0 0 2.665 12.74h7.289a6.947 6.947 0 0 0 6.651 -4.943l5.12 -17L73.2 48.2l-1.061 6.737Z" fill="none" stroke="#45413c" stroke-linecap="round" stroke-linejoin="round" stroke-width="1"></path>
  <path d="M9.631 69.983c0 -3.473 8.1 -17.365 19.68 -17.365s13.313 6.946 13.313 8.682c0 4.631 -6.946 8.683 -6.946 8.683Z" fill="#a6fbff" stroke-width="1"></path>
  <path d="M29.311 54.933c9.81 0 12.553 4.988 13.162 7.567a5.013 5.013 0 0 0 0.151 -1.2c0 -1.736 -1.737 -8.682 -13.313 -8.682S9.631 66.51 9.631 69.983h0.583c2.05 -5.183 9.34 -15.05 19.097 -15.05Z" fill="#d9fdff" stroke-width="1"></path>
  <path d="M9.631 69.983c0 -3.473 8.1 -17.365 19.68 -17.365s13.313 6.946 13.313 8.682c0 4.631 -6.946 8.683 -6.946 8.683Z" fill="none" stroke="#45413c" stroke-linecap="round" stroke-linejoin="round" stroke-width="1"></path>
  <path d="M54.779 45.672a2.316 2.316 0 0 1 -2.316 2.316H37.414a2.316 2.316 0 0 1 0 -4.631h15.049a2.316 2.316 0 0 1 2.316 2.315Z" fill="#e09f7e" stroke-width="1"></path>
  <path d="M37.414 45.094h15.049a2.315 2.315 0 0 1 2.147 1.447 2.316 2.316 0 0 0 -2.147 -3.184H37.414a2.316 2.316 0 0 0 -2.146 3.184 2.315 2.315 0 0 1 2.146 -1.447Z" fill="#f0c2a1" stroke-width="1"></path>
  <path d="M54.779 45.672a2.316 2.316 0 0 1 -2.316 2.316H37.414a2.316 2.316 0 0 1 0 -4.631h15.049a2.316 2.316 0 0 1 2.316 2.315Z" fill="none" stroke="#45413c" stroke-linecap="round" stroke-linejoin="round" stroke-width="1"></path>
  <path d="M25.259 61.879a5.211 5.211 0 0 1 5.08 4.052 5.21 5.21 0 1 0 -10.289 -1.158 5.262 5.262 0 0 0 0.129 1.158 5.212 5.212 0 0 1 5.08 -4.052Z" fill="#d9fdff" stroke-width="1"></path>
  <path d="M20.05 64.773a5.209 5.209 0 1 0 10.418 0 5.209 5.209 0 1 0 -10.418 0Z" fill="none" stroke="#45413c" stroke-linecap="round" stroke-linejoin="round" stroke-width="1"></path>
  <path d="M63.018 32.389a2.062 2.062 0 0 1 3.715 -1.771l11.2 20.264 -5.788 4.051Z" fill="#a6fbff" stroke-width="1"></path>
  <path d="M66.733 30.618a2.062 2.062 0 0 0 -3.715 1.771l0.922 2.279a3.58 3.58 0 0 0 0.612 -0.369l2.98 -2.235Z" fill="#00dfeb" stroke-width="1"></path>
  <path d="M63.018 32.389a2.062 2.062 0 0 1 3.715 -1.771l11.2 20.264 -5.788 4.051Z" fill="none" stroke="#45413c" stroke-linecap="round" stroke-linejoin="round" stroke-width="1"></path>
  <path d="M61.424 25.106a3.576 3.576 0 1 0 3.128 6.3l3.858 -2.894a2.685 2.685 0 0 0 -2.349 -4.73Z" fill="#a6fbff" stroke="#45413c" stroke-linecap="round" stroke-linejoin="round" stroke-width="1"></path>
  <path d="M62.892 28.679a1.448 1.448 0 0 1 -0.617 1.951L55.6 34.1a1.447 1.447 0 0 1 -1.335 -2.568l6.676 -3.471a1.449 1.449 0 0 1 1.951 0.618Z" fill="#e09f7e" stroke="#45413c" stroke-linecap="round" stroke-linejoin="round" stroke-width="1"></path>
  <path d="M71.565 66.51a10.997 10.997 0 1 0 21.994 0 10.997 10.997 0 1 0 -21.994 0Z" fill="#87898c" stroke-width="1"></path>
  <path d="M93.027 63.122a11 11 0 1 0 -20.153 8.6h3.993a3.637 3.637 0 0 0 3.405 -2.36 6.177 6.177 0 0 1 5.782 -4.007 12.011 12.011 0 0 0 6.836 -2.135Z" fill="#45413c" stroke-width="1"></path>
  <path d="M76.195 66.51a6.367 6.367 0 1 0 12.734 0 6.367 6.367 0 1 0 -12.734 0Z" fill="#adc4d9" stroke-width="1"></path>
  <path d="M82.562 60.143a6.366 6.366 0 0 0 -4.123 11.218 3.634 3.634 0 0 0 1.833 -2 6.177 6.177 0 0 1 5.782 -4.007 11.944 11.944 0 0 0 2.7 -0.309 6.37 6.37 0 0 0 -6.192 -4.902Z" fill="#8ca4b8" stroke-width="1"></path>
  <path d="M71.565 66.51a10.997 10.997 0 1 0 21.994 0 10.997 10.997 0 1 0 -21.994 0Z" fill="none" stroke="#45413c" stroke-linecap="round" stroke-linejoin="round" stroke-width="1"></path>
  <path d="M76.195 66.51a6.367 6.367 0 1 0 12.734 0 6.367 6.367 0 1 0 -12.734 0Z" fill="none" stroke="#45413c" stroke-linecap="round" stroke-linejoin="round" stroke-width="1"></path>
  <path d="M91.244 53.2c-4.475 0 -8.1 -1.555 -8.1 -3.473s3.629 -3.473 8.1 -3.473h0.579V53.2Z" fill="#a6fbff" stroke-width="1"></path>
  <path d="M91.244 46.251c-4.475 0 -8.1 1.555 -8.1 3.473a1.82 1.82 0 0 0 0.462 1.158c1.113 -1.349 4.114 -2.315 7.642 -2.315h0.579v-2.316Z" fill="#d9fdff" stroke-width="1"></path>
  <path d="M91.244 53.2c-4.475 0 -8.1 -1.555 -8.1 -3.473s3.629 -3.473 8.1 -3.473h0.579V53.2Z" fill="none" stroke="#45413c" stroke-linecap="round" stroke-linejoin="round" stroke-width="1"></path>
  <path d="M80.429 50.381a14.961 14.961 0 0 0 -12.968 10.942A15.635 15.635 0 0 0 67 66.809a2.868 2.868 0 0 0 2.857 2.591h5.554a3.637 3.637 0 0 0 3.405 -2.36 6.177 6.177 0 0 1 5.784 -4.003 12 12 0 0 0 6.834 -2.137l1.987 -1.375a2.315 2.315 0 0 0 0.519 -3.312 15.035 15.035 0 0 0 -13.511 -5.832Z" fill="#ffffff" stroke="#45413c" stroke-linecap="round" stroke-linejoin="round" stroke-width="1"></path>
  <path d="M80.429 50.381a14.961 14.961 0 0 0 -12.968 10.942A15.635 15.635 0 0 0 67 66.809a2.868 2.868 0 0 0 2.857 2.591h5.554a3.637 3.637 0 0 0 3.405 -2.36 6.177 6.177 0 0 1 5.784 -4.003 12 12 0 0 0 6.834 -2.137l1.987 -1.375a2.315 2.315 0 0 0 0.519 -3.312 15.035 15.035 0 0 0 -13.511 -5.832Z" fill="#a6fbff" stroke-width="1"></path>
  <path d="M67.461 64.217a15.066 15.066 0 0 1 26.449 -5.148 2.314 2.314 0 0 0 0.03 -2.855 15.066 15.066 0 0 0 -26.479 5.109A15.653 15.653 0 0 0 67 66.8a15.884 15.884 0 0 1 0.461 -2.583Z" fill="#d9fdff" stroke-width="1"></path>
  <path d="M80.429 50.381a14.961 14.961 0 0 0 -12.968 10.942A15.635 15.635 0 0 0 67 66.809a2.868 2.868 0 0 0 2.857 2.591h5.554a3.637 3.637 0 0 0 3.405 -2.36 6.177 6.177 0 0 1 5.784 -4.003 12 12 0 0 0 6.834 -2.137l1.987 -1.375a2.315 2.315 0 0 0 0.519 -3.312 15.035 15.035 0 0 0 -13.511 -5.832Z" fill="none" stroke="#45413c" stroke-linecap="round" stroke-linejoin="round" stroke-width="1"></path>
  <path d="M91.823 46.251c1.278 0 2.315 1.555 2.315 3.473S93.1 53.2 91.823 53.2Z" fill="#ffe500" stroke="#45413c" stroke-linecap="round" stroke-linejoin="round" stroke-width="1"></path>
</svg>