<svg xmlns="http://www.w3.org/2000/svg" fill="none" viewBox="0 0 200 200" id="Evaluation-1--Streamline-Manchester">
  <desc>
    Evaluation 1 Streamline Illustration: https://streamlinehq.com
  </desc>
  <g id="evaluation-1--Work-evaluation">
    <g id="elements">
      <path id="vector" fill="#ff7449" d="M51.2791 42.2181c-5.012 -1.593 -17.85 -5.869 -19.285 -6.324 -0.337 -0.107 -0.708 0.181 -0.781 0.494 -0.084 0.363 0.157 0.674 0.494 0.781 5.012 1.593 17.85 5.869 19.285 6.324 0.337 0.107 0.708 -0.181 0.781 -0.494 0.084 -0.363 -0.157 -0.674 -0.494 -0.781Z" stroke-width="1"></path>
      <path id="vector_2" fill="#ff7449" d="M50.0302 15.0471c-0.494 -0.677 -1.582 0.022 -1.093 0.703 2.867 3.986 10.123 14.341 10.957 15.485 0.494 0.677 1.581 -0.022 1.093 -0.703 -3.897 -5.436 -8.925 -12.698 -10.957 -15.485Z" stroke-width="1"></path>
      <path id="vector_3" fill="#ff7449" d="M71.553 5.67807c0.442 5.19603 0.937 11.34303 0.937 17.35903 0 0.833 1.306 0.781 1.301 -0.052 -0.041 -7.041 -0.692 -15.33403 -0.937 -17.33303 -0.117 -0.957 -1.37 -0.776 -1.301 0.026Z" stroke-width="1"></path>
    </g>
    <g id="document">
      <path id="vector_4" fill="#ffffff" d="M177.166 60.671c-0.074 -1.006 -0.936 -2.524 -1.929 -2.671 0.021 -0.737 0.004 -1.533 -0.387 -2.196 -0.395 -0.67 -1.672 -1.046 -2.417 -0.703 -0.842 -2.444 -2.797 -2.895 -3.702 -1.95 -0.503 -1.767 -1.735 -1.849 -2.626 -0.392 -0.957 1.563 -1.459 3.517 -1.283 5.358 -0.5 -0.253 -1.01 -0.487 -1.528 -0.7 -0.496 -0.204 -1.041 -0.391 -1.587 -0.26 -0.755 0.181 -1.262 0.988 -1.301 1.77 -0.039 0.78 0.293 1.531 0.703 2.212 1.166 1.94 2.967 3.488 5.075 4.32 0.364 7.521 0.286 15.043 -0.234 22.564 -4.121 -3.989 -10.93 -9.81 -16.148 -14.082 -3.865 -27.408 -7.694 -44.97 -8.004 -46.194 -0.302 -1.61 -1.198 -1.829 -2.863 -1.614 -21.925 2.828 -42.5778 4.632 -64.3618 8.458l-21.393 29.175c0.091 1.546 2.102 7.833 4.324 20.318 -6.799 1.68 -14.607 4.423 -20.902 7.374 -1.508 0.707 -3.127 1.612 -3.565 3.201 -0.473 1.716 0.622 3.437 1.666 4.841 4.648 6.254 9.786 12.18 15.303 17.672 -2.446 2.681 -1.436 6.907 -0.234 10.332 0.33 0.94 0.724 1.988 1.614 2.446 0.776 0.399 1.952 -0.13 2.056 -0.911 0.182 0.781 0.989 1.437 1.796 1.353 0.938 -0.097 1.666 -1.119 1.457 -2.03 0.338 1.041 1.64 1.614 2.629 1.197 0.989 -0.417 1.458 -1.796 0.911 -2.733 0.755 1.015 1.536 2.056 2.369 3.045 0.781 13.013 1.171 26.104 1.562 39.117 1.275 -0.26 53.1448 0.729 93.2248 -7.131l0.208 -0.65c-0.971 -27.244 -3.338 -52.424 -5.953 -73.406 5.221 3.003 12.329 5.554 17.795 6.259 0.913 0.118 1.363 -0.053 1.666 -1.067 0.601 -2.011 0.603 -4.165 0.547 -6.246 -0.17 -6.332 -0.208 -15.016 -0.905 -21.31 0.364 -0.11 0.799 -0.349 1.257 -0.618 0.301 3.642 2.943 3.964 4.333 0.977 0.65 -1.64 0.961 -3.383 0.833 -5.127l-0.006 0.002ZM56.0162 115.82c-0.729 0.157 -1.529 0.428 -2.212 0.13 -0.438 -0.191 -0.737 -0.565 -1.041 -0.937 -4.735 -5.779 -9.057 -11.894 -13.351 -17.984 6.06 -1.952 13.091 -3.958 19.297 -5.625 1.068 7.022 2.114 15.507 2.955 25.613 -1.614 -1.146 -3.721 -1.612 -5.647 -1.197h-0.001Z" stroke-width="1"></path>
      <path id="vector_5" fill="#501200" d="M175.656 67.7239c-0.941 0.802 -2.32 1.018 -3.253 0.052 -0.627 -0.649 -0.833 -1.536 -0.911 -2.42 -0.217 0.217 -0.104 0.065 -0.104 0.442 0.514 4.626 0.655 13.092 0.755 17.099 0.106 4.27 0.373 7.105 -0.312 9.76 -0.33 1.278 -0.737 2.098 -2.082 2.082 -1.42 -0.017 -5.099 -0.828 -6.454 -1.197 -3.856 -1.051 -7.521 -2.681 -10.879 -4.815 2.648 21.3931 5.49 52.3121 5.856 72.5341 0.002 0.101 -0.246 1.19 -0.703 1.275 -5.526 1.027 -10.629 2.033 -22.174 3.435 -0.107 5.583 -0.255 11.39 0.208 17.489 0.547 0.052 1.09 0.27 1.614 0.442 3.804 1.252 8.334 2.242 11.66 4.294 1.332 0.822 3.827 2.694 4.06 4.242 0.164 1.092 -0.651 1.845 -1.64 2.03 -1.094 0.205 -2.238 0.158 -3.357 0.208 -3.622 0.162 -9.486 0.197 -14.47 -0.026 -3.755 -0.168 -7.001 0.101 -6.897 -4.112 0.027 -1.093 0.196 -2.19 0.494 -3.227 0.229 -0.796 0.764 -2.33 1.223 -3.019 0.208 -0.312 0.547 -0.573 0.885 -0.703 -1.098 -5.489 -2.345 -11.179 -3.93 -16.526 -8.945 0.843 -18.219 1.471 -26.0259 1.822 0 0.427 -1.519 4.467 -3.826 14.887 0.885 0.338 1.223 1.406 1.562 2.212 0.416 0.989 0.701 2.056 0.859 3.123 0.696 4.696 -0.914 5.455 -4.867 5.648 -6.848 0.334 -13.412 0.288 -18.14 0.026 -3.594 -0.199 -3.816 -1.934 -2.446 -3.618 3.141 -3.861 8.57 -5.122 14.965 -7.053 0.544 -0.164 1.067 -0.364 1.64 -0.442 0.216 -3.241 0.633 -7.455 0.468 -14.418 -1.993 0.074 -24.771 0.402 -25.037 0.468 -0.661 0 -0.818 -0.338 -0.833 -0.651 -0.158 -3.381 -0.989 -29.305 -1.562 -38.857 -0.364 -0.442 -0.729 -0.885 -1.067 -1.353 -0.61 1.559 -2.493 2.054 -3.826 1.067 -0.711 1.313 -2.491 1.719 -3.67 0.416 -0.521 0.39 -1.248 0.568 -1.874 0.416 -1.325 -0.322 -1.952 -1.796 -2.342 -2.941 -1.18 -3.463 -2.169 -7.539 -0.026 -10.514 -5.882 -5.882 -11.574 -12.659 -15.199 -17.6981 -2.477 -3.443 -2.348 -6.211 1.483 -8.25 2.492 -1.327 7.348 -3.274 10.254 -4.32 4.467 -1.608 10.494 -3.279 11.113 -3.279 -2.197 -12.573 -4.319 -19.045 -4.242 -19.936 0.058 -0.676 0.888 -1.429 1.275 -1.952 1.075 -1.451 18.164 -24.804 19.233 -26.26 0.093 -0.127 1.187 -2.164 2.238 -1.744 0.217 0 7.338 -1.206 12.128 -1.9 6.874 -0.995 50.2299 -6.298 51.9739 -6.428 1.379 -0.104 2.477 0.346 2.967 1.718 0.93 2.604 5.282 26.424 8.146 46.742 0.208 -0.026 0.39 0.052 0.573 0.182 4.233 3.386 9.549 7.965 14.288 12.492 0.394 -5.913 0.494 -13.285 0.156 -20.717 -2.056 -0.937 -3.83 -2.47 -4.997 -4.424 -0.574 -0.962 -1.023 -2.163 -0.651 -3.279 0.382 -1.148 1.408 -1.865 2.603 -1.666 0.574 0.096 1.119 0.338 1.666 0.573 -0.026 -1.093 0.133 -2.185 0.521 -3.201 0.367 -0.962 0.932 -2.223 1.952 -2.655 1.01 -0.427 1.822 0.208 2.264 1.067 1.274 -0.609 3.215 0.041 3.774 2.108 0.833 -0.338 1.846 0.001 2.446 0.677 0.649 0.73 0.781 1.692 0.781 2.629 3.025 0.529 2.136 7.879 -0.286 9.942l-0.001 0.002Zm0.234 -8.641c-0.096 2.498 -0.897 4.99 -3.123 5.83 0.052 0.703 0.179 1.618 0.677 2.004 0.646 0.5 1.383 -0.101 1.796 -0.651 1.119 -1.489 2.013 -5.82 0.651 -7.183h-0.001Zm-1.431 -2.603c-0.21 -0.598 -0.859 -1.171 -1.431 -0.807 -0.277 0.139 -0.093 -0.084 -0.182 0.963 -0.168 1.977 -0.729 3.878 -1.614 5.648 0.364 0.442 0.677 0.989 0.755 1.536 1.848 -0.442 2.46 -2.55 2.551 -4.242 0.062 -1.152 0.175 -2.376 -0.078 -3.097l-0.001 -0.001Zm-4.19 4.789c0.807 -1.666 1.314 -3.565 1.301 -5.413 -0.005 -0.755 -0.156 -1.691 -0.807 -2.16 -0.469 -0.338 -1.119 -0.442 -1.509 -0.104 0.222 1.995 0.298 3.869 -0.468 6.22 -0.026 0.052 -0.026 0.078 -0.052 0.13 0.547 0.39 1.067 0.833 1.536 1.327h-0.001Zm0.599 22.356c-0.118 -5.96 -0.156 -11.946 -0.781 -17.88 -0.627 -0.119 -1.034 -0.46 -4.711 -2.941 -0.7 -0.472 -0.052 -1.562 0.651 -1.119 0.036 0.018 3.468 2.089 4.502 2.759 0.156 -0.104 0.185 -0.417 0.156 -0.573 -0.072 -0.392 -0.389 -0.73 -0.651 -1.015 -1.924 -2.101 -4.318 -3.742 -6.819 -4.789 -0.388 -0.162 -0.885 -0.394 -1.327 -0.312 -0.678 0.125 -0.887 1.015 -0.781 1.614 0.271 1.525 2.416 4.338 5.257 5.413 0.285 0.108 0.461 0.312 0.468 0.625 0.092 3.939 0.589 8.687 -0.234 22.564 -0.032 0.546 -0.684 0.867 -1.119 0.468 -1.402 -1.285 -6.299 -6.21 -14.757 -12.987 0.416 3.071 1.431 10.775 1.509 11.529 4.994 3.359 10.535 5.477 16.5 6.272 0.39 0.052 0.806 0.152 1.197 0.104 0.234 -0.029 0.338 -0.13 0.442 -0.338 0.892 -2.109 0.545 -6.87 0.494 -9.395l0.004 0.001Zm-2.759 -27.587c0.021 -1.524 -0.217 -4.441 -1.275 -3.383 -0.599 0.599 -0.947 1.559 -1.171 2.368 -0.384 1.385 -0.182 2.603 -0.182 2.733 0.338 0.113 1.657 0.996 1.952 1.197 0.052 -0.13 0.182 -0.208 0.312 -0.26 0.234 -0.885 0.352 -1.77 0.364 -2.655ZM156.97 161.287c-1.491 -38.29 -5.439 -75.5281 -11.295 -109.6471 -0.862 -5.021 -3.617 -20.317 -4.581 -23.944 -0.408 -1.536 -1.662 -1.015 -6.663 -0.338 -14.32 1.939 -28.971 2.943 -56.6319 7.313 -0.825 0.13 -1.686 0.312 -2.03 0.312 0.821 5.567 2.394 12.492 3.618 19.155 0.999 5.44 1.142 5.579 -0.677 6.168 -7.238 2.343 -15.833 4.071 -24.62 4.659 4.262 16.338 6.83 34.834 8.224 51.6611 2.77 2.167 3.525 5.766 2.472 8.693 -0.104 0.234 -0.286 0.39 -0.494 0.442 1.666 2.577 2.999 5.394 3.956 8.328 0.179 0.548 -0.468 1.015 -0.963 0.729 -1.483 -0.859 -2.759 -1.952 -3.93 -3.175 0.703 12.18 1.067 24.386 1.431 36.592 3.332 -0.194 4.137 0.158 22.434 -0.338 21.6169 -0.586 48.5129 -2.529 69.7489 -6.611l0.001 0.001Zm-22.669 22.33c-0.39 -4.295 -0.346 -12.905 -0.208 -17.567 -1.301 0.156 -6.324 0.703 -7.547 0.807 2.923 10.345 3.801 16.761 4.034 16.761 0.603 0.603 1.504 0.786 2.212 0.677 0.5 -0.077 0.924 -0.384 1.51 -0.677l-0.001 -0.001Zm-36.4619 -14.783c-2.368 0.104 -4.737 0.208 -7.131 0.286 0.094 4.334 0.097 8.22 -0.494 14.731 0.494 0.234 0.964 0.542 1.536 0.651 0.782 0.149 1.626 -0.091 2.212 -0.651 0.187 -0.179 0.786 -4.415 3.878 -15.017h-0.001ZM78.8661 58.9529v-0.13c0 -0.026 0 -0.078 -0.026 -0.104 -1.124 -7.867 -3.036 -14.793 -4.268 -23.085 -0.06 0.079 -20.434 28.033 -20.508 28.108 8.055 -0.533 15.033 -1.875 22.46 -4.034 0.574 -0.167 1.809 -0.55 2.342 -0.755Zm-12.518 73.7051c-1.399 -3.539 -3.39 -6.954 -6.09 -10.072 -0.543 -0.627 0.299 -1.497 0.911 -0.911 0.074 0.071 2.191 1.946 2.629 2.316 0.588 -3.068 -1.042 -6.574 -4.763 -7.521 -2.508 -0.639 -3.919 0.665 -5.387 0.078 -0.785 -0.314 -1.023 -0.652 -4.216 -4.841 -3.613 -4.74 -7.124 -9.531 -10.566 -14.3661 -0.26 -0.365 0.024 -0.839 0.39 -0.963 2.28 -0.773 11.8 -3.679 18.713 -5.517 -0.312 -1.978 -0.625 -3.93 -0.963 -5.882 -0.178 0.178 -7.011 1.386 -16.969 5.674 -1.532 0.66 -3.132 1.287 -4.555 2.16 -1.126 0.691 -2.076 1.717 -1.9 3.123 0.183 1.463 1.502 3.054 2.551 4.4501 4.36 5.806 9.181 11.25 14.314 16.396 0.26 0.261 0.232 0.649 0 0.911 -2.122 2.397 -1.275 6.125 -0.26 9.161 0.279 0.835 0.551 1.997 1.353 2.498 0.427 0.267 1.163 0.203 1.22 -0.592 0.06 -0.83 1.331 -0.96 1.331 0.202 0.13 0.494 0.625 0.937 1.145 0.833 0.52 -0.104 0.908 -0.702 0.807 -1.223 -0.161 -0.832 0.98 -1.142 1.249 -0.338 0.227 0.679 1.115 1.032 1.744 0.755 0.672 -0.296 0.901 -1.218 0.599 -1.796 -0.385 -0.737 0.591 -1.379 1.119 -0.651 1.581 2.181 3.464 4.469 5.596 6.116h-0.002Zm-5.413 -16.839c-0.677 -7.912 -1.562 -15.8241 -2.759 -23.6841 -3.882 1.066 -8.561 2.273 -17.724 5.205 4.407 6.2591 11.671 15.7831 12.31 16.5781 0.359 0.447 0.729 1.145 1.275 1.405 0.803 0.383 1.613 -0.384 3.644 -0.338 1.146 0.026 2.238 0.338 3.253 0.833l0.001 0.001Z" stroke-width="1"></path>
      <path id="vector_6" fill="#501200" d="M151.478 152.256c0.083 0.311 -0.103 0.732 -0.468 0.807 -7.142 1.462 -18.565 2.717 -29.331 2.42 -0.833 -0.023 -0.833 -1.324 0 -1.301 9.53 0.265 19.69 -0.399 29.019 -2.368 0.34 -0.072 0.683 0.076 0.781 0.442h-0.001Z" stroke-width="1"></path>
      <path id="vector_7" fill="#501200" d="M150.828 143.095c0.083 0.311 -0.103 0.732 -0.468 0.807 -7.142 1.462 -18.565 2.717 -29.331 2.42 -0.833 -0.023 -0.833 -1.324 0 -1.301 9.53 0.265 19.69 -0.399 29.019 -2.368 0.34 -0.072 0.683 0.076 0.781 0.442h-0.001Z" stroke-width="1"></path>
      <path id="vector_8" fill="#501200" d="M149.969 135.261c0.083 0.311 -0.103 0.732 -0.468 0.807 -7.025 1.438 -18.66 2.715 -29.357 2.42 -0.833 -0.023 -0.833 -1.324 0 -1.301 9.53 0.265 19.69 -0.399 29.019 -2.368 0.34 -0.072 0.709 0.076 0.807 0.442h-0.001Z" stroke-width="1"></path>
      <path id="vector_9" fill="#501200" d="M148.876 126.75c0.083 0.311 -0.103 0.735 -0.442 0.807 -6.419 1.366 -18.063 2.731 -29.357 2.42 -0.833 -0.023 -0.833 -1.324 0 -1.301 9.643 0.268 19.035 -0.455 29.019 -2.368 0.312 -0.078 0.683 0.076 0.781 0.442h-0.001Z" stroke-width="1"></path>
      <path id="vector_10" fill="#501200" d="M148.642 120.01c0.073 0.314 -0.103 0.732 -0.468 0.807 -7.142 1.462 -18.565 2.717 -29.331 2.42 -0.833 -0.023 -0.833 -1.324 0 -1.301 9.53 0.265 19.69 -0.399 29.019 -2.368 0.34 -0.072 0.697 0.079 0.781 0.442h-0.001Z" stroke-width="1"></path>
      <path id="vector_11" fill="#ffffff" d="M134.301 183.617c-1.156 0.578 -1.594 0.902 -2.733 0.599 -0.702 -0.187 -1.006 -0.625 -1.093 -0.625 -1.238 -5.978 -2.429 -11.238 -3.982 -16.735 1.223 -0.13 6.246 -0.651 7.547 -0.807 -0.191 9.703 0.057 13.107 0.26 17.567l0.001 0.001Z" stroke-width="1"></path>
      <path id="vector_12" fill="#501200" d="M121.731 51.5618c0.575 0.622 -0.337 1.534 -0.911 0.911 -1.66 -1.801 -3.878 -2.911 -6.298 -3.279 -0.338 -0.052 -0.552 -0.496 -0.468 -0.807 0.098 -0.366 0.443 -0.496 0.807 -0.442 2.63 0.383 5.083 1.684 6.871 3.618l-0.001 -0.001Z" stroke-width="1"></path>
      <path id="vector_13" fill="#501200" d="M115.589 57.704c1.713 1.514 1.916 4.033 1.692 6.168 -0.533 5.085 -3.112 5.017 -4.424 2.082 -1.222 -2.731 -1.11 -5.928 -0.312 -7.756 0.568 -1.301 1.84 -1.56 3.045 -0.494h-0.001Z" stroke-width="1"></path>
      <path id="vector_14" fill="#501200" d="M116.265 82.8449c-0.38 2.344 -0.784 4.683 -1.509 6.923 -2.678 8.272 -8.526 11.0261 -13.273 9.916 -4.3349 -1.014 -6.2389 -5.283 -7.2609 -9.63 -0.545 -2.317 -0.755 -4.711 -0.625 -7.105 0 -0.279 0.392 -0.939 0.859 -0.911 6.6959 0.403 13.5869 -0.1 20.1959 -1.249 1.415 -0.135 1.841 0.653 1.614 2.056h-0.001Z" stroke-width="1"></path>
      <path id="vector_15" fill="#501200" d="M110.358 69.3628c0.12 0.938 -0.416 1.848 -0.781 2.681 -0.468 1.067 -0.905 2.136 -1.353 3.227 -0.129 0.313 -0.625 0.392 -0.885 0.234 -0.339 -0.206 -0.368 -0.574 -0.234 -0.885 2.378 -5.545 2.275 -5.166 1.561 -5.003 -0.598 0.137 -1.808 0.425 -3.487 0.969 -0.313 0.101 -0.734 -0.129 -0.807 -0.442 -0.784 -3.371 -1.639 -6.759 -2.629 -10.072 -0.24 -0.805 1.01 -1.144 1.249 -0.338 0.92 3.102 1.77 6.246 2.498 9.421 0.885 -0.286 1.768 -0.527 2.655 -0.755 1.146 -0.295 2.062 -0.211 2.212 0.963h0.001Z" stroke-width="1"></path>
      <path id="vector_16" fill="#501200" d="M107.026 154.39c0.047 1.33 0.179 2.29 -0.286 2.941 -0.609 0.852 -1.9 0.803 -2.837 0.911 -11.1079 1.278 -22.0559 1.487 -30.1639 0.963 -0.339 -0.022 -0.653 -0.286 -0.651 -0.651 0.059 -10.805 -0.264 -21.506 -1.666 -32.22 -0.013 -0.102 0.099 -1.428 0.755 -1.457 10.925 -0.498 21.878 -1.436 32.6619 -3.253 0.443 -0.075 0.81 0.182 0.833 0.625 0.551 10.561 0.743 14.931 1.353 32.142l0.001 -0.001Zm-1.327 2.134c0.156 -0.364 0.043 -0.858 0.026 -1.223 -0.105 -2.21 -1.093 -28.134 -1.301 -32.298 -10.0319 1.571 -20.6299 2.661 -31.7259 3.149 0.178 0.355 1.951 15.466 1.692 31.778 5.467 0.42 16.638 0.442 30.4759 -1.093 0.26 -0.029 0.729 0 0.833 -0.312v-0.001Z" stroke-width="1"></path>
      <path id="vector_17" fill="#501200" d="M95.9131 66.4748c-0.536 5.115 -3.136 4.936 -4.424 2.056 -1.222 -2.731 -1.11 -5.928 -0.312 -7.756 1.205 -2.761 5.376 -0.4 4.737 5.7h-0.001Z" stroke-width="1"></path>
      <path id="vector_18" fill="#ffffff" d="M97.865 168.834c-2.093 6.991 -2.937 11.053 -3.826 14.965 -0.629 0.629 -1.475 0.854 -2.264 0.703 -0.546 -0.105 -1.015 -0.416 -1.536 -0.651 0.545 -5.995 0.631 -11.582 0.494 -14.731 2.368 -0.078 7.131 -0.286 7.131 -0.286h0.001Z" stroke-width="1"></path>
      <path id="vector_19" fill="#501200" d="M92.087 51.666c0.806 -0.239 1.143 1.009 0.338 1.249 -2.296 0.685 -4.364 2.014 -5.96 3.8 -0.553 0.619 -1.482 -0.285 -0.911 -0.911 1.775 -1.947 4.03 -3.397 6.532 -4.138h0.001Z" stroke-width="1"></path>
      <g id="group">
        <path id="vector_20" fill="#fccac2" d="M91.046 73.397c-2.53 -1.762 -7.288 -2.564 -10.176 -0.911 -3.705 2.121 -3.009 9.341 5.231 9.525 8.375 0.187 9.04 -5.764 4.945 -8.615v0.001Z" stroke-width="1"></path>
        <path id="vector_21" fill="#fccac2" d="M120.95 68.7908c-3.708 1.824 -5.965 5.741 -3.019 8.302 2.655 3.88 9.57 1.053 12.258 -2.837 2.893 -4.185 -1.693 -9.177 -9.239 -5.465Z" stroke-width="1"></path>
      </g>
      <path id="vector_22" fill="#ff7449" d="M121.132 110.927c-10.682 8.457 -18.364 17.82 -27.613 27.613 -0.1 -0.033 -0.007 0.021 -2.004 -0.494 -4.878 -1.259 -10.041 -2.737 -14.679 -3.123 -0.94 -0.47 -1.325 0.877 -0.547 1.223 4.711 4.19 16.825 14.977 18.166 16.188 0.342 0.309 0.755 0.208 1.015 -0.13 9.609 -12.511 18.631 -26.111 26.677 -40.496 0.368 -0.526 -0.321 -1.33 -1.015 -0.781Z" stroke-width="1"></path>
    </g>
    <g id="spark">
      <path id="vector_23" fill="#ffb949" d="M31.0309 116.314h-4.034c-0.052 -1.223 -0.061 -2.473 0.026 -3.722 0.024 -0.339 -0.312 -0.651 -0.651 -0.651 -0.364 0 -0.626 0.286 -0.651 0.651 -0.084 1.249 -0.104 2.472 -0.026 3.722h-2.941c-0.833 0 -0.833 1.301 0 1.301h3.019c0.104 1.301 0.299 2.579 0.573 3.852 0.174 0.809 1.421 0.471 1.249 -0.338 -0.249 -1.168 -0.416 -2.342 -0.521 -3.513h3.956c0.833 0 0.833 -1.301 0 -1.301l0.001 -0.001Z" stroke-width="1"></path>
      <path id="vector_24" fill="#ffb949" d="M36.2618 66.8909c-0.494 -0.031 -0.963 -0.052 -1.457 -0.052 -0.182 -1.874 -0.344 -3.747 -0.494 -5.622 -0.027 -0.338 -0.286 -0.651 -0.651 -0.651 -0.338 0 -0.676 0.286 -0.651 0.651 0.133 1.9 0.312 3.774 0.494 5.674 -0.312 0.026 -0.65 0.054 -0.963 0.104 -1.108 0.178 -0.593 1.386 0 1.301 0.364 -0.052 0.729 -0.078 1.093 -0.104 0.13 1.171 0.222 2.318 0.39 3.487 0.049 0.339 0.26 0.651 0.651 0.651 0.312 0 0.703 -0.312 0.651 -0.651l-0.39 -3.513c0.442 0 0.885 0.022 1.327 0.052 0.339 0.023 0.674 -0.312 0.651 -0.651 -0.029 -0.416 -0.286 -0.654 -0.651 -0.677v0.001Z" stroke-width="1"></path>
      <path id="vector_25" fill="#ffb949" d="M100.103 110.588c-0.573 0.048 -1.119 0.13 -1.692 0.208 -0.182 -1.431 -0.348 -2.865 -0.547 -4.268 -0.048 -0.339 -0.26 -0.651 -0.651 -0.651 -0.312 0 -0.698 0.312 -0.651 0.651 0.205 1.481 0.364 2.993 0.573 4.476 -0.677 0.13 -1.327 0.263 -1.978 0.416 -0.338 0.08 -0.547 0.468 -0.442 0.807 0.105 0.339 0.466 0.539 0.807 0.442 0.595 -0.169 1.197 -0.26 1.796 -0.39 0.13 1.119 0.266 2.241 0.416 3.357 0.046 0.339 0.26 0.651 0.651 0.651 0.312 0 0.699 -0.312 0.651 -0.651 -0.17 -1.195 -0.312 -2.394 -0.442 -3.592 0.494 -0.078 1.014 -0.137 1.509 -0.182 0.338 -0.031 0.651 -0.286 0.651 -0.651 0 -0.286 -0.313 -0.653 -0.651 -0.625v0.002Z" stroke-width="1"></path>
      <path id="vector_26" fill="#ffb949" d="M164.569 109.834c-0.104 -0.338 -0.468 -0.544 -0.807 -0.442 -0.442 0.133 -0.911 0.208 -1.353 0.286v-4.893c0 -0.833 -1.301 -0.833 -1.301 0v5.023c-0.573 0.026 -1.171 0.022 -1.744 -0.026 -0.338 -0.028 -0.651 0.312 -0.651 0.651 0 0.364 0.287 0.621 0.651 0.651 0.573 0.047 1.171 0.052 1.744 0.026v4.997c0 0.833 1.301 0.833 1.301 0v-5.127c0.573 -0.078 1.142 -0.194 1.718 -0.338 0.337 -0.085 0.547 -0.468 0.442 -0.807v-0.001Z" stroke-width="1"></path>
      <path id="vector_27" fill="#ffb949" d="M159.442 30.559c0.313 -0.129 0.392 -0.626 0.234 -0.885 -0.206 -0.34 -0.574 -0.369 -0.885 -0.234 -0.524 0.227 -1.067 0.39 -1.64 0.547 -0.13 -1.796 -0.283 -3.592 -0.416 -5.361 -0.069 -0.917 -1.363 -0.797 -1.301 0 0.145 1.875 0.286 3.748 0.442 5.596 -0.442 0.052 -0.885 0.078 -1.301 0.078 -0.364 0 -0.651 0.286 -0.651 0.651 0 0.338 0.286 0.651 0.651 0.651 0.468 0 0.937 -0.052 1.405 -0.104l0.39 4.867c0.027 0.338 0.286 0.651 0.651 0.651 0.338 0 0.678 -0.286 0.651 -0.651 -0.125 -1.692 -0.26 -3.383 -0.416 -5.101 0.755 -0.182 1.485 -0.414 2.186 -0.703v-0.002Z" stroke-width="1"></path>
    </g>
  </g>
</svg>