<svg viewBox="0 0 100 100" xmlns="http://www.w3.org/2000/svg" id="Tap-Phone-1-1--Streamline-Ux">
  <desc>
    Tap Phone 1 1 Streamline Illustration: https://streamlinehq.com
  </desc>
  <path d="M10 50.548a40 40 0 1 0 80 0 40 40 0 1 0 -80 0Z" fill="#d9edff" stroke-width="1"></path>
  <path d="M80.167 62.474H17.791a2.275 2.275 0 0 0 -2.276 2.275h0a4.552 4.552 0 0 0 4.551 4.551H80.36a3.413 3.413 0 0 0 3.408 -3.6 3.543 3.543 0 0 0 -3.601 -3.226Z" fill="#b0d9ff" stroke="#020064" stroke-linecap="round" stroke-linejoin="round" stroke-width="1"></path>
  <path d="m67.846 62.474 0 6.826" fill="none" stroke="#020064" stroke-linecap="round" stroke-linejoin="round" stroke-width="1"></path>
  <path d="M34.855 55.933a1.135 1.135 0 0 1 -0.8 -0.334l-2.276 -2.275a1.138 1.138 0 1 1 1.609 -1.609l2.275 2.276a1.138 1.138 0 0 1 -0.8 1.942Z" fill="#b0d9ff" stroke="#020064" stroke-linecap="round" stroke-linejoin="round" stroke-width="1"></path>
  <path d="M32.58 60.2a1.131 1.131 0 0 1 -0.36 -0.059L28.807 59a1.137 1.137 0 1 1 0.72 -2.157l3.413 1.137a1.138 1.138 0 0 1 -0.36 2.217Z" fill="#b0d9ff" stroke="#020064" stroke-linecap="round" stroke-linejoin="round" stroke-width="1"></path>
  <path d="m59.737 55.833 -8.346 -2.609a5.286 5.286 0 0 1 -1.568 -0.877l-6.144 -4.978c-1.2 -0.358 -0.073 -1.077 0.285 -2.281s2.512 -5.194 3.716 -4.835l10.485 3.277h0l1.8 -0.893a2.275 2.275 0 0 1 2.065 4.054 2.274 2.274 0 0 1 -0.743 4.055l-1.4 0.366 1.15 0.359a2.276 2.276 0 0 1 -1.3 4.362Z" fill="#ffffff" stroke="#020064" stroke-linecap="round" stroke-linejoin="round" stroke-width="1"></path>
  <path d="m57.329 47.077 2.8 -0.733a2.275 2.275 0 1 1 1.151 4.4" fill="#ffffff" stroke="#020064" stroke-linecap="round" stroke-linejoin="round" stroke-width="1"></path>
  <path d="m54.95 49.569 6.085 1.902" fill="#ffffff" stroke="#020064" stroke-linecap="round" stroke-linejoin="round" stroke-width="1"></path>
  <path d="m49.875 47.163 -1.641 -1.275" fill="none" stroke="#020064" stroke-linecap="round" stroke-linejoin="round" stroke-width="1"></path>
  <path d="m70.152 30.812 -7.88 -9.129 -0.017 0.014C49.125 28.646 35.624 37 38.714 58.233l0.173 1.211a2.275 2.275 0 1 0 4.505 -0.642l-0.172 -1.212c-0.764 -5.359 -0.363 -9.731 3.352 -13.638 5.556 -5.952 5.836 -0.763 4.184 1.75l-3.33 5.517a2.275 2.275 0 0 0 3.867 2.4c7.948 -9.109 10.249 -9.79 11.762 -14.415 1.13 -3.453 2.938 -4.804 7.097 -8.392Z" fill="#ffffff" stroke="#020064" stroke-linecap="round" stroke-linejoin="round" stroke-width="1"></path>
  <path d="M84.925 21.683 72.5 32.008a1.137 1.137 0 0 1 -1.6 -0.118L60.862 20.264a1.136 1.136 0 0 1 0.118 -1.6l11.078 -9.212Z" fill="#b0d9ff" stroke-width="1"></path>
  <path d="M84.925 21.683 72.5 32.008a1.137 1.137 0 0 1 -1.6 -0.118L60.862 20.264a1.136 1.136 0 0 1 0.118 -1.6l11.078 -9.212" fill="none" stroke="#020064" stroke-linecap="round" stroke-linejoin="round" stroke-width="1"></path>
  <path d="m60.862 20.264 -1.827 1.577a1 1 0 0 0 -0.1 1.41l8.725 10.112a1 1 0 0 0 1.411 0.1L70.9 31.89Z" fill="#ffffff" stroke="#020064" stroke-linecap="round" stroke-linejoin="round" stroke-width="1"></path>
  <path d="M48.8 79.755a2.125 2.125 0 0 0 -3 0l-2.167 2.167V68.8a2.125 2.125 0 0 0 -4.25 0v13.122l-2.167 -2.167a2.125 2.125 0 0 0 -3 3L40 88.552a2.14 2.14 0 0 0 0.7 0.463l0.032 0.01a2.064 2.064 0 0 0 1.55 0l0.032 -0.01a2.14 2.14 0 0 0 0.7 -0.463l5.786 -5.793a2.123 2.123 0 0 0 0 -3.004Z" fill="#ffffff" stroke="#020064" stroke-linecap="round" stroke-linejoin="round" stroke-width="1"></path>
</svg>