<svg xmlns="http://www.w3.org/2000/svg" fill="none" viewBox="0 0 200 200" id="Add-Product--Streamline-Brooklyn">
  <desc>
    Add Product Streamline Illustration: https://streamlinehq.com
  </desc>
  <g id="add-product--e-commerce-add-product">
    <path id="phone" fill="#191919" d="M99.595 74.4551c-1.383 5.082 -3.071 11.215 -5.125 18.633 -13.434 48.5289 -12.752 48.6839 -14.601 48.1759 -53.058 -14.536 -56.205 -15.21 -63.178 -16.82 -0.905 -0.21 -0.481 -0.298 2.232 -10.227 1.857 -6.8 20.467 -73.2989 21.227 -75.6229 0.444 -1.357 0.671 -1.581 1.213 -1.395 3.101 1.067 8.26 2.66 14.426 4.485 0.206 -0.721 0.396 -1.373 0.577 -1.96 -9.063 -2.587 -15.484 -4.595 -15.302 -5.122 0.907 -2.62 1.4 -6.635 5.934 -5.758 4.266 0.823 34.114 9.384 38.262 10.673 13.155 4.086 18.334 3.927 19.911 8.437l8.762 2.496c0.254 -1.175 0.5 -2.391 0.757 -3.722 0.945 -4.904 -2.385 -8.657 -6.753 -10.039 -0.025 -0.008 -60.563 -17.871 -63.403 -17.498 -4.022 0.528 -6.453 2.499 -7.473 6.527 -0.249 0.982 -29.44596 102.0989 -29.69196 107.4059 -0.391 8.435 5.37896 8.472 58.04796 22.948 20.177 5.546 16.111 8.614 29.219 -37.665 5.552 -19.6029 9.367 -32.6899 12.085 -41.9529l-7.125 -2.002 -0.001 0.003Zm-21.202 -42.45c2.087 0.222 1.865 2.883 0.093 2.914 -1.824 0.033 -2.225 -2.593 -0.093 -2.914Zm-5.476 -2.367c2.663 0.085 2.508 3.944 -0.073 3.932 -2.642 -0.012 -2.701 -4.021 0.073 -3.932ZM42.06 145.639c-1.83 -0.563 -3.475 -0.754 -3.06 -2.053 0.467 -1.451 2.261 -0.288 10.255 1.875 0.934 0.253 1.998 0.302 2.053 1.437 -0.065 2.102 -1.759 1.044 -9.248 -1.259Zm38.211 -1.335c-4.327 8.891 -0.844 5.345 -59.151 -9.352 -2.187 -0.55 -3.877 -1.745 -5 -3.708 -0.524 -0.917 -0.399 -1.957 -0.487 -2.835 -0.024 -2.625 -0.02 -2.633 2.354 -1.969 64.124 17.954 63.237 15.905 62.284 17.864Z" stroke-width="1"></path>
    <path id="arrow" fill="#38a1ff" d="M151.725 94.142c0.632 1.683 1.291 -0.017 8.239 -1.317 1.011 -0.189 1.258 0.073 0.895 1.058 -1.956 5.308 -5.806 12.721 -9.403 17.179 -0.712 0.882 -0.579 0.712 -9.782 -3.857 -7.609 -3.777 -8.167 -3.212 -8.229 -4.113 -0.079 -1.148 5.903 -3.587 6.975 -4.007 1.009 -0.395 1.116 -0.948 0.954 -1.808 -2.049 -10.887 -7.083 -18.538 -12.807 -24.654 -3.241 -3.463 16.029 2.544 23.158 21.519Z" stroke-width="1"></path>
    <g id="list 2">
      <path id="vector" fill="#191919" d="M89.819 81.3899c-0.879 3.357 -4.289 15.092 -4.382 15.414 -0.469 1.614 -0.673 1.712 -2.267 1.256 -34.443 -9.869 -33.265 -9.498 -49.491 -14.348 -1.474 -0.44 -1.472 -0.526 -1.038 -2.004 4.743 -16.112 4.185 -16.425 6.086 -15.885 51.382 14.598 51.059 14.15 51.092 15.567Zm-1.812 0.567c0.151 -0.361 3.671 0.796 -48.992 -14.303 -1.286 -0.369 -0.514 -0.18 -4.872 13.851 -0.468 1.508 -0.23 0.738 26.635 8.365 23.137 6.569 22.936 7.348 23.331 5.801 0.424 -1.661 0.536 -2.012 3.897 -13.714h0.001Z" stroke-width="1"></path>
      <path id="vector_2" fill="#191919" d="M41.836 71.465c7.324 2.102 7.504 1.861 7.222 2.901 -1.938 7.142 -1.696 7.519 -2.931 7.203 -7.146 -1.827 -7.282 -2.03 -7.026 -2.876 2.186 -7.234 1.991 -7.354 2.735 -7.228Zm0.395 1.329c-0.355 -0.047 -0.145 -0.037 -1.898 5.387 -0.298 0.921 0.251 0.509 5.228 1.979 0.862 0.255 0.596 0.014 1.812 -3.997 0.633 -2.088 0.941 -1.625 -5.142 -3.369Z" stroke-width="1"></path>
      <path id="vector_3" fill="#191919" d="M84.597 86.522c-0.049 6.374 -9.633 6.221 -9.564 -0.045 0.069 -6.294 9.613 -6.321 9.564 0.045Zm-4.882 3.506c4.76 0.057 4.757 -7.049 0.077 -7.136 -4.688 -0.088 -4.833 7.079 -0.077 7.136Z" stroke-width="1"></path>
      <path id="vector_4" fill="#191919" d="M69.652 80.46c0.428 0.136 1.241 0.124 1.027 0.862 -0.21 0.726 -0.879 0.328 -1.333 0.198 -2.226 -0.641 -16.81 -4.747 -16.602 -5.665 0.122 -0.538 0.821 -0.523 16.908 4.605Z" stroke-width="1"></path>
      <path id="vector_5" fill="#191919" d="M53.249 78.9008c1.871 0.381 7.507 2.252 9.317 2.86 0.395 0.133 0.913 0.294 0.724 0.86 -0.189 0.566 -0.675 0.337 -1.08 0.216 -1.254 -0.373 -8.215 -2.488 -9.362 -3.117 -0.565 -0.309 -0.496 -0.925 0.401 -0.819Z" stroke-width="1"></path>
      <path id="vector_6" fill="#191919" d="M78.262 85.4099c0.725 0.229 1.07 0.426 1.174 0.094 0.193 -0.616 0.245 -1.136 0.597 -1.025 0.416 0.13 0.917 0.181 0.807 0.528 -0.195 0.615 -0.448 1.072 -0.098 1.182 0.616 0.193 1.136 0.245 1.025 0.597 -0.13 0.416 -0.181 0.917 -0.528 0.807 -0.615 -0.195 -1.072 -0.448 -1.182 -0.098 -0.228 0.726 -0.263 1.123 -0.593 1.019 -0.416 -0.131 -0.917 -0.181 -0.807 -0.528 0.229 -0.725 0.428 -1.071 0.096 -1.176 -0.725 -0.23 -1.123 -0.263 -1.019 -0.593 0.131 -0.416 0.181 -0.917 0.528 -0.807Z" stroke-width="1"></path>
    </g>
    <g id="list 3">
      <path id="vector_7" fill="#191919" d="M82.681 105.864c-4.906 17.159 -4.2321 17.2 -6.4291 16.572 -34.6959 -9.925 -41.166 -11.755 -49.766 -14.438 -1.374 -0.428 -1.389 -0.518 -0.989 -1.881 4.696 -16.011 4.227 -16.504 6.099 -15.972 51.426 14.601 51.1991 14.084 51.0851 15.719Zm-1.796 0.381c0.118 -0.387 3.0259 0.703 -49.0121 -14.283 -1.223 -0.352 -0.501 -0.175 -4.866 13.948 -0.418 1.351 -0.198 0.634 24.558 7.68 25.235 7.183 25.008 7.974 25.438 6.388 0.98 -3.61 1.0361 -4.424 3.8811 -13.734l0.001 0.001Z" stroke-width="1"></path>
      <path id="vector_8" fill="#191919" d="M32.5209 103.967c-1.086 -0.322 -0.614 -0.489 1.449 -7.532 0.308 -1.05 0.255 -0.751 7.352 1.225 1.17 0.326 0.663 0.85 -1.123 7.479 -0.399 1.482 -0.761 0.878 -7.678 -1.172Zm8.155 -4.943c0.082 -0.497 0.093 -0.272 -5.3 -1.859 -0.701 -0.206 -0.403 -0.081 -2.155 5.369 -0.273 0.85 -0.073 0.408 5.257 1.953 0.64 0.186 0.749 0.3 2.198 -5.463Z" stroke-width="1"></path>
      <path id="vector_9" fill="#191919" d="M46.07 99.927c2.45 0.406 4.531 1.106 16.423 4.827 0.677 0.212 1.231 0.346 1.111 0.852 -0.174 0.734 -0.848 0.415 -4.236 -0.597 -3.854 -1.152 -17.391 -5.094 -13.298 -5.082Z" stroke-width="1"></path>
      <path id="vector_10" fill="#191919" d="M55.367 107.248c-9.837 -3.035 -10.163 -3.21 -9.947 -3.822 0.147 -0.418 0.893 -0.198 1.345 -0.069 1.239 0.351 8.606 2.564 9.138 2.929 0.606 0.416 0.375 1.121 -0.536 0.962Z" stroke-width="1"></path>
      <path id="vector_11" fill="#191919" d="M77.4419 111.135c-0.049 6.374 -9.633 6.221 -9.564 -0.045 0.069 -6.294 9.613 -6.321 9.564 0.045Zm-4.882 3.506c4.76 0.057 4.757 -7.049 0.077 -7.136 -4.688 -0.088 -4.833 7.079 -0.077 7.136Z" stroke-width="1"></path>
      <path id="vector_12" fill="#191919" d="M71.1089 110.022c0.725 0.229 1.07 0.426 1.174 0.094 0.193 -0.616 0.245 -1.136 0.597 -1.025 0.416 0.13 0.917 0.181 0.807 0.528 -0.195 0.615 -0.448 1.072 -0.098 1.182 0.616 0.193 1.136 0.245 1.025 0.597 -0.13 0.416 -0.181 0.917 -0.528 0.807 -0.615 -0.195 -1.072 -0.448 -1.182 -0.098 -0.228 0.726 -0.263 1.123 -0.593 1.019 -0.416 -0.131 -0.917 -0.181 -0.807 -0.528 0.229 -0.725 0.428 -1.071 0.096 -1.176 -0.725 -0.23 -1.123 -0.263 -1.019 -0.593 0.131 -0.416 0.181 -0.917 0.528 -0.807Z" stroke-width="1"></path>
    </g>
    <g id="list 1">
      <path id="vector_13" fill="#38a1ff" d="M124.021 61.143c-2.671 8.891 -2.852 10.194 -3.999 14.414 -0.564 2.077 -0.267 1.039 -33.3371 -8.374 -32.442 -9.234 -32.73 -8.294 -32.183 -10.065 5.713 -18.509 4.776 -18.738 6.378 -18.278C100.344 50.188 115.694 54.5 121.594 56.217l-0.163 -2.466c-7.472 -2.323 -24.0871 -6.865 -60.9091 -17.3 -2.454 -0.695 -1.837 -0.049 -7.992 20.934 -0.524 1.788 -0.506 1.904 1.294 2.466 11.271 3.521 19.754 5.904 65.2191 18.92 2.654 0.76 2.11 0.77 7.054 -16.873l-2.076 -0.755Z" stroke-width="1"></path>
      <path id="vector_14" fill="#38a1ff" d="M61.735 54.5691c-1.425 -0.422 -0.806 -0.642 1.9 -9.872 0.403 -1.376 0.334 -0.978 9.633 1.606 1.535 0.426 0.87 1.113 -1.472 9.8 -0.524 1.943 -0.997 1.149 -10.061 -1.534Zm10.687 -6.478c0.106 -0.65 0.12 -0.349 -6.945 -2.436 -0.917 -0.271 -0.531 -0.107 -2.823 7.036 -0.357 1.113 -0.097 0.537 6.888 2.558 0.84 0.243 0.98 0.392 2.88 -7.158Z" stroke-width="1"></path>
      <path id="vector_15" fill="#38a1ff" d="M79.4869 49.274c3.21 0.532 5.94 1.456 21.5231 6.327 0.887 0.277 1.613 0.455 1.457 1.115 -0.226 0.96 -1.111 0.545 -5.5521 -0.783 -5.053 -1.51 -22.791 -6.676 -17.428 -6.659Z" stroke-width="1"></path>
      <path id="vector_16" fill="#38a1ff" d="M91.672 58.8681c-12.89 -3.979 -13.319 -4.205 -13.035 -5.006 0.193 -0.546 1.17 -0.259 1.763 -0.092 1.625 0.458 11.278 3.359 11.975 3.838 0.793 0.544 0.491 1.47 -0.703 1.26Z" stroke-width="1"></path>
      <path id="vector_17" fill="#38a1ff" d="M120.331 55.038c-0.121 10.997 16.701 11.266 16.786 0.078 0.084 -11.174 -16.664 -11.127 -16.786 -0.078Zm11.823 0.538c-0.249 0.791 -0.345 1.601 -0.926 1.419 -1.076 -0.337 -1.881 -0.789 -2.075 -0.173 -0.338 1.076 -0.428 1.981 -1.044 1.788 -0.791 -0.249 -1.601 -0.345 -1.419 -0.925 0.337 -1.077 0.783 -1.87 0.169 -2.063 -1.076 -0.339 -1.981 -0.428 -1.788 -1.042 0.249 -0.791 0.345 -1.601 0.926 -1.418 1.076 0.337 1.872 0.783 2.065 0.169 0.339 -1.076 0.43 -1.993 1.046 -1.8 0.791 0.249 1.601 0.345 1.419 0.925 -0.337 1.077 -0.789 1.881 -0.173 2.075 1.076 0.338 1.993 0.43 1.8 1.045Z" stroke-width="1"></path>
    </g>
    <g id="cart">
      <path id="vector_18" fill="#191919" d="M191.182 101.969c-18.734 0.208 -17.263 -0.55 -17.976 3.814 -2.073 12.674 -1.519 12.513 -3.08 12.481 -3.712 -0.078 -6.48 -0.067 -32.644 -0.063 -35.917 0.005 -34.811 -0.609 -34.152 2.202 1.682 7.177 1.578 7.118 8.473 33.94 0.565 2.199 0.609 2.199 2.905 2.213 53.5 0.333 50.759 -0.613 50.555 0.667 -1.441 9 -0.954 8.891 -2.095 8.904 -48.567 0.538 -48.384 0.426 -48.535 1.745 -0.151 1.319 1.078 1.025 14.668 0.826 36.839 -0.544 36.323 0.195 36.721 -2.407l8.755 -57.508c0.149 -1.001 -0.02 -0.347 7.994 -0.514 8.824 -0.186 9.071 0.061 9.205 -0.856 0.497 -3.383 1.559 -5.469 -0.793 -5.442l-0.001 -0.002Zm-36.918 18.207c1.317 -0.02 0.369 -0.042 -0.524 10.126 -0.159 1.798 0.067 1.062 -16.794 1.187 -1.569 0.01 -0.46 -0.597 -1.808 -10.703 -0.155 -1.162 0.259 -0.339 19.126 -0.61Zm-19.756 13.372c0.617 8.894 1.131 8.881 -0.086 8.887 -13.043 0.059 -12.819 0.534 -13.017 -0.566 -1.635 -9.067 -2.073 -8.828 -0.976 -8.82 13.979 0.099 14.01 -0.49 14.079 0.499Zm-17.438 -13.337c10.593 0 13.106 0.004 15.791 -0.026 1.27 -0.014 0.693 -0.096 1.441 10.426 0.094 1.325 0.63 0.844 -14.152 0.862 -1.174 0.002 -0.699 0.19 -3.08 -11.262Zm-9.252 10.914c-2.864 -11.28 -3.437 -11.148 -1.967 -11.062 8.757 0.511 9.723 -0.42 9.865 0.701 1.282 10.12 2.705 10.742 1.094 10.729 -9.005 -0.071 -8.761 0.55 -8.993 -0.369l0.001 0.001Zm0.536 1.94s6.107 0.006 9.126 -0.006c0.711 -0.002 0.371 -0.092 2.256 9.059 0.137 0.668 0.554 0.422 -8.541 0.744 -0.644 0.022 -0.389 0.112 -2.842 -9.796l0.001 -0.001Zm6.025 21.933c-0.911 0.016 -0.54 0.161 -3.259 -10.928 0 0 4.729 -0.008 7.073 0 2.644 0.01 1.682 -0.668 4.056 10.184 0.204 0.934 0.465 0.609 -7.87 0.744Zm20.936 -0.076c-11.677 -0.09 -11.447 0.357 -11.637 -0.742 -1.798 -10.363 -2.309 -10.178 -1.074 -10.175 12.779 0.027 12.717 -0.536 12.789 0.462 0.767 10.763 1.255 10.465 -0.078 10.455Zm15.909 -0.575c-0.076 0.783 0.012 0.52 -10.65 0.548 -2.652 0.008 -2.837 0.108 -2.882 -0.604 -0.654 -10.483 -1.197 -10.46 0.179 -10.469 1.25 -0.006 12.462 -0.114 13.742 -0.132 1.058 -0.017 0.693 -0.363 -0.389 10.656v0.001Zm0.646 -12.116c-15.043 0.089 -14.974 0.46 -15.031 -0.375 -0.609 -8.89 -0.968 -8.891 0.063 -8.885 17.036 0.097 16.641 -0.561 16.47 0.815 -1.048 8.44 -0.548 8.438 -1.502 8.445Zm13.832 12.132c-0.155 1.052 -5.426 0.296 -12.134 0.542 -1.201 0.042 -0.999 0.432 0.279 -9.583 0.3 -2.352 -0.234 -1.588 12.872 -1.904 0.976 -0.024 0.664 -0.455 -1.017 10.944v0.001Zm3.149 -20.67c-1.366 8.288 -0.891 8.4 -1.849 8.404 -13.251 0.047 -12.86 0.426 -12.744 -0.538 1.058 -8.74 0.624 -8.612 1.706 -8.614 13.261 -0.029 13.096 -0.528 12.886 0.749l0.001 -0.001Zm1.942 -12.715c-1.696 10.675 -1.2 10.559 -2.313 10.546 -3.004 -0.034 -9.464 -0.061 -12.469 -0.033 -0.864 0.008 -0.52 0.548 0.634 -10.862 0.063 -0.616 -0.018 -0.453 6.284 -0.487 8.3 -0.047 8.058 -0.389 7.864 0.836Z" stroke-width="1"></path>
      <path id="vector_19" fill="#191919" d="M156.805 169.978c-2.568 -0.043 -5.075 2.234 -5.088 5.164 -0.012 2.646 2.393 5.136 4.9 5.083 7.397 -0.155 6.79 -10.137 0.188 -10.247Z" stroke-width="1"></path>
      <path id="vector_20" fill="#191919" d="M115.229 175.7c0.002 2.65 2.35 5.088 4.9 5.092 3.033 0.004 5.357 -2.189 5.365 -5.069 0.02 -6.951 -10.271 -6.727 -10.265 -0.022v-0.001Z" stroke-width="1"></path>
    </g>
  </g>
</svg>