<svg viewBox="0 0 100 100" xmlns="http://www.w3.org/2000/svg" id="Phone-Qr-Code--Streamline-Ux">
  <desc>
    Phone Qr Code Streamline Illustration: https://streamlinehq.com
  </desc>
  <path d="M10 51.193a40 40 0 1 0 80 0 40 40 0 1 0 -80 0Z" fill="#daedf7" stroke="#daedf7" stroke-width="1"></path>
  <path d="M75.642 80c0 -1.837 -11.48 -3.328 -25.641 -3.328S24.358 78.164 24.358 80 35.839 83.329 50 83.329 75.642 81.839 75.642 80Z" fill="#45413c" opacity=".15" stroke-width="1"></path>
  <path d="m30.32 8.807 39.359 0 0 71.339 -39.359 0Z" fill="#ffffff" stroke-width="1"></path>
  <path d="M69.68 75.421a4.726 4.726 0 0 1 -4.725 4.725h-29.91a4.726 4.726 0 0 1 -4.725 -4.725v-6.038a5.535 5.535 0 0 0 5.535 5.535h28.29a5.535 5.535 0 0 0 5.535 -5.535Z" fill="#daedf7" stroke-width="1"></path>
  <path d="m30.32 8.807 39.359 0 0 71.339 -39.359 0Z" fill="none" stroke="#45413c" stroke-linecap="round" stroke-linejoin="round" stroke-width="1"></path>
  <path d="M34.01 19.262h31.979v49.814H34.01z" fill="#00b8f0" stroke-width="1"></path>
  <path d="m34.01 46.335 27.075 -27.073 -27.075 0 0 27.073z" fill="#4acfff" stroke-width="1"></path>
  <path d="M34.01 19.262h31.979v49.814H34.01z" fill="none" stroke="#45413c" stroke-linecap="round" stroke-linejoin="round" stroke-width="1"></path>
  <path d="M46.925 74.611a3.075 3.075 0 1 0 6.15 0 3.075 3.075 0 1 0 -6.15 0Z" fill="#ffffff" stroke="#45413c" stroke-linecap="round" stroke-linejoin="round" stroke-width="1"></path>
  <path d="m48.155 14.034 9.225 0" fill="none" stroke="#45413c" stroke-linecap="round" stroke-linejoin="round" stroke-width="1"></path>
  <path d="M42.005 14.034a1.23 1.23 0 1 0 2.46 0 1.23 1.23 0 1 0 -2.46 0Z" fill="#45413c" stroke-width="1"></path>
  <path d="M39.545 41.442a1.2 1.2 0 0 1 -1.194 -1.194v-6.534a1.2 1.2 0 0 1 1.194 -1.194h6.534a1.2 1.2 0 0 1 1.194 1.194v6.534a1.2 1.2 0 0 1 -1.194 1.194Zm5.341 -2.388v-4.146h-4.147v4.146Z" fill="#ffffff" stroke="#009fd9" stroke-linecap="round" stroke-linejoin="round" stroke-width="1"></path>
  <path d="M39.545 55.817a1.2 1.2 0 0 1 -1.194 -1.193v-6.535a1.2 1.2 0 0 1 1.194 -1.189h6.534a1.194 1.194 0 0 1 1.194 1.193v6.535a1.194 1.194 0 0 1 -1.194 1.193Zm5.341 -2.387v-4.147h-4.147v4.147Z" fill="#ffffff" stroke="#009fd9" stroke-linecap="round" stroke-linejoin="round" stroke-width="1"></path>
  <path d="M53.921 41.442a1.2 1.2 0 0 1 -1.194 -1.194v-6.534a1.2 1.2 0 0 1 1.194 -1.194h6.534a1.2 1.2 0 0 1 1.194 1.194v6.534a1.2 1.2 0 0 1 -1.194 1.194Zm5.34 -2.388v-4.146h-4.147v4.146Z" fill="#ffffff" stroke="#009fd9" stroke-linecap="round" stroke-linejoin="round" stroke-width="1"></path>
  <path d="M56.534 55.817a1.194 1.194 0 1 1 0 -2.387h2.727v-5.454h-1.42a1.194 1.194 0 1 1 0 -2.387h2.614a1.2 1.2 0 0 1 1.194 1.193v7.842a1.2 1.2 0 0 1 -1.194 1.193Z" fill="#ffffff" stroke="#009fd9" stroke-linecap="round" stroke-linejoin="round" stroke-width="1"></path>
  <path d="M46.079 45.363a1.194 1.194 0 0 1 0 -2.388h2.727v-2.727a1.194 1.194 0 0 1 2.388 0v3.921A1.2 1.2 0 0 1 50 45.363Z" fill="#ffffff" stroke="#009fd9" stroke-linecap="round" stroke-linejoin="round" stroke-width="1"></path>
  <path d="M50 38.828a1.2 1.2 0 0 1 -1.194 -1.193v-3.921a1.194 1.194 0 0 1 2.388 0v3.921A1.2 1.2 0 0 1 50 38.828Z" fill="#ffffff" stroke="#009fd9" stroke-linecap="round" stroke-linejoin="round" stroke-width="1"></path>
  <path d="M53.921 47.976a1.2 1.2 0 0 1 -1.194 -1.194v-3.92a1.2 1.2 0 0 1 1.194 -1.194h6.534a1.194 1.194 0 0 1 0 2.388h-5.341v2.726a1.2 1.2 0 0 1 -1.193 1.194Z" fill="#ffffff" stroke="#009fd9" stroke-linecap="round" stroke-linejoin="round" stroke-width="1"></path>
  <path d="M50 51.9a1.2 1.2 0 0 1 -1.194 -1.2v-2.611a1.194 1.194 0 0 1 2.388 0v1.42h5.34a1.194 1.194 0 0 1 0 2.388Z" fill="#ffffff" stroke="#009fd9" stroke-linecap="round" stroke-linejoin="round" stroke-width="1"></path>
  <path d="M39.545 46.669a1.2 1.2 0 0 1 -1.194 -1.193v-1.307a1.2 1.2 0 0 1 1.194 -1.194h2.614a1.194 1.194 0 1 1 0 2.388h-1.42v0.113a1.194 1.194 0 0 1 -1.194 1.193Z" fill="#ffffff" stroke="#009fd9" stroke-linecap="round" stroke-linejoin="round" stroke-width="1"></path>
  <path d="M48.693 55.817a1.194 1.194 0 1 1 0 -2.387h3.921a1.194 1.194 0 1 1 0 2.387Z" fill="#ffffff" stroke="#009fd9" stroke-linecap="round" stroke-linejoin="round" stroke-width="1"></path>
</svg>