<svg viewBox="0 0 100 100" xmlns="http://www.w3.org/2000/svg" id="Online-Shopping--Streamline-Ux">
  <desc>
    Online Shopping Streamline Illustration: https://streamlinehq.com
  </desc>
  <path d="M7.585 50a40 40 0 1 0 80 0 40 40 0 1 0 -80 0Z" fill="#d9edff" stroke-width="1"></path>
  <path d="M28.731 49.542a18.48 18.48 0 1 0 36.96 0 18.48 18.48 0 1 0 -36.96 0Z" fill="none" stroke="#020064" stroke-linecap="round" stroke-linejoin="round" stroke-width="1"></path>
  <path d="M36.964 86.502a10.491 1.733 0 1 0 20.982 0 10.491 1.733 0 1 0 -20.982 0Z" fill="#b0d9ff" stroke-width="1"></path>
  <path d="M17.181 49.542a30.03 30.03 0 1 0 60.06 0 30.03 30.03 0 1 0 -60.06 0Z" fill="none" stroke="#020064" stroke-linecap="round" stroke-linejoin="round" stroke-width="1"></path>
  <path d="M92.448 23.522h-6.573l-4.569 12.691h0a1.044 1.044 0 0 0 0.585 -0.314L92.183 24.2a1.056 1.056 0 0 0 0.265 -0.678Z" fill="#b0d9ff" stroke="#020064" stroke-linecap="round" stroke-linejoin="round" stroke-width="1"></path>
  <path d="M85.875 23.522h6.573v-0.01a1.061 1.061 0 0 0 -0.24 -0.687l-3.572 -4.368a2.127 2.127 0 0 0 -0.732 -0.573l-2.029 5.638Z" fill="#ffffff" stroke="#020064" stroke-linecap="round" stroke-linejoin="round" stroke-width="1"></path>
  <path d="M87.9 17.884a2.128 2.128 0 0 0 -0.914 -0.207h-5.9l4.784 5.845h0Z" fill="#b0d9ff" stroke="#020064" stroke-linecap="round" stroke-linejoin="round" stroke-width="1"></path>
  <path d="m81.091 17.677 -4.784 5.845 9.568 0 -4.784 -5.845z" fill="#ffffff" stroke="#020064" stroke-linecap="round" stroke-linejoin="round" stroke-width="1"></path>
  <path d="m76.307 23.522 4.568 12.691a1.052 1.052 0 0 0 0.213 0.046h0.005a1.038 1.038 0 0 0 0.213 -0.046l4.569 -12.691Z" fill="#ffffff" stroke="#020064" stroke-linecap="round" stroke-linejoin="round" stroke-width="1"></path>
  <path d="M69.733 23.522h6.574l4.568 12.691h0a1.038 1.038 0 0 1 -0.584 -0.314L70 24.2a1.062 1.062 0 0 1 -0.267 -0.678Z" fill="#b0d9ff" stroke="#020064" stroke-linecap="round" stroke-linejoin="round" stroke-width="1"></path>
  <path d="M76.307 23.522h-6.574v-0.01a1.061 1.061 0 0 1 0.24 -0.687l3.572 -4.368a2.137 2.137 0 0 1 0.732 -0.573l2.03 5.638Z" fill="#ffffff" stroke="#020064" stroke-linecap="round" stroke-linejoin="round" stroke-width="1"></path>
  <path d="M74.277 17.884a2.128 2.128 0 0 1 0.914 -0.207h5.9l-4.784 5.845h0Z" fill="#b0d9ff" stroke="#020064" stroke-linecap="round" stroke-linejoin="round" stroke-width="1"></path>
  <path d="M5.63 27.468a9.494 9.494 0 1 0 18.988 0 9.494 9.494 0 1 0 -18.988 0Z" fill="#b0d9ff" stroke-width="1"></path>
  <path d="M15.124 17.975a9.494 9.494 0 0 0 -6.713 16.206l13.426 -13.425a9.464 9.464 0 0 0 -6.713 -2.781Z" fill="#ffffff" stroke-width="1"></path>
  <path d="M5.63 27.468a9.494 9.494 0 1 0 18.988 0 9.494 9.494 0 1 0 -18.988 0Z" fill="none" stroke="#020064" stroke-linecap="round" stroke-linejoin="round" stroke-width="1"></path>
  <path d="M8.241 27.468a6.883 6.883 0 1 0 13.766 0 6.883 6.883 0 1 0 -13.766 0Z" fill="none" stroke="#020064" stroke-linecap="round" stroke-linejoin="round" stroke-width="1"></path>
  <path d="M17.5 25.1a2.372 2.372 0 0 0 -2.373 -2.373h-0.173a2.2 2.2 0 0 0 -0.984 4.168l2.314 1.157a2.2 2.2 0 0 1 -0.984 4.168h-0.173a2.373 2.373 0 0 1 -2.373 -2.373" fill="none" stroke="#020064" stroke-linecap="round" stroke-linejoin="round" stroke-width="1"></path>
  <path d="m15.124 22.722 0 -1.187" fill="none" stroke="#020064" stroke-linecap="round" stroke-linejoin="round" stroke-width="1"></path>
  <path d="m15.124 33.402 0 -1.187" fill="none" stroke="#020064" stroke-linecap="round" stroke-linejoin="round" stroke-width="1"></path>
  <path d="M71.836 64.951h19.853a2.681 2.681 0 0 1 2.681 2.681v10.813a2.681 2.681 0 0 1 -2.681 2.681H71.836a2.68 2.68 0 0 1 -2.68 -2.68V67.631a2.681 2.681 0 0 1 2.68 -2.68Z" fill="#b0d9ff" stroke-width="1"></path>
  <path d="M81.447 64.951h-9.611a2.68 2.68 0 0 0 -2.68 2.68v9.611Z" fill="#ffffff" stroke-width="1"></path>
  <path d="m72.486 77.32 4.757 0" fill="none" stroke="#020064" stroke-linecap="round" stroke-linejoin="round" stroke-width="1"></path>
  <path d="m72.486 70.659 4.757 0 0 3.33 -4.757 0Z" fill="#ffffff" stroke="#020064" stroke-linecap="round" stroke-linejoin="round" stroke-width="1"></path>
  <path d="M71.836 64.951h19.853a2.681 2.681 0 0 1 2.681 2.681v10.813a2.681 2.681 0 0 1 -2.681 2.681H71.836a2.68 2.68 0 0 1 -2.68 -2.68V67.631a2.681 2.681 0 0 1 2.68 -2.68Z" fill="none" stroke="#020064" stroke-linecap="round" stroke-linejoin="round" stroke-width="1"></path>
  <path d="M86.282 75.892a2.854 2.854 0 1 0 5.708 0 2.854 2.854 0 1 0 -5.708 0Z" fill="#ffffff" stroke-width="1"></path>
  <path d="M82.952 75.892a2.854 2.854 0 1 0 5.708 0 2.854 2.854 0 1 0 -5.708 0Z" fill="#ffffff" stroke="#020064" stroke-linecap="round" stroke-linejoin="round" stroke-width="1"></path>
  <path d="M86.282 75.892a2.854 2.854 0 1 0 5.708 0 2.854 2.854 0 1 0 -5.708 0Z" fill="none" stroke="#020064" stroke-linecap="round" stroke-linejoin="round" stroke-width="1"></path>
  <path d="M24.01 77.858H10.985a1.572 1.572 0 0 1 -1.554 -1.333l-1.367 -8.887h18.867l-1.367 8.887a1.572 1.572 0 0 1 -1.554 1.333Z" fill="#ffffff" stroke-width="1"></path>
  <path d="M24.01 77.858H10.985a1.572 1.572 0 0 1 -1.554 -1.333l-1.367 -8.887h18.867l-1.367 8.887a1.572 1.572 0 0 1 -1.554 1.333Z" fill="none" stroke="#020064" stroke-linecap="round" stroke-linejoin="round" stroke-width="1"></path>
  <path d="m17.498 70.782 0 3.931" fill="none" stroke="#020064" stroke-linecap="round" stroke-linejoin="round" stroke-width="1"></path>
  <path d="m22.214 70.862 -0.786 3.851" fill="none" stroke="#020064" stroke-linecap="round" stroke-linejoin="round" stroke-width="1"></path>
  <path d="m12.781 70.862 0.786 3.851" fill="none" stroke="#020064" stroke-linecap="round" stroke-linejoin="round" stroke-width="1"></path>
  <path d="M27.717 66.459a1.18 1.18 0 0 1 -1.179 1.179H8.457a1.179 1.179 0 1 1 0 -2.358h18.081a1.179 1.179 0 0 1 1.179 1.179Z" fill="#b0d9ff" stroke="#020064" stroke-linecap="round" stroke-linejoin="round" stroke-width="1"></path>
  <path d="m8.85 65.28 7.075 -7.076" fill="none" stroke="#020064" stroke-linecap="round" stroke-linejoin="round" stroke-width="1"></path>
  <path d="m26.145 65.28 -7.075 -7.076" fill="none" stroke="#020064" stroke-linecap="round" stroke-linejoin="round" stroke-width="1"></path>
  <path d="M61.3 71.077a3.2 3.2 0 0 1 -3.2 3.2H35.7a3.2 3.2 0 0 1 -3.2 -3.2v-44.8a3.2 3.2 0 0 1 3.2 -3.2h22.4a3.2 3.2 0 0 1 3.2 3.2Z" fill="#ffffff" stroke="#020064" stroke-linecap="round" stroke-linejoin="round" stroke-width="1"></path>
  <path d="M32.5 29.474h28.803v38.403H32.5z" fill="#b0d9ff" stroke-width="1"></path>
  <path d="M32.5 29.474h28.803v38.403H32.5z" fill="none" stroke="#020064" stroke-linecap="round" stroke-linejoin="round" stroke-width="1"></path>
  <path d="m42.901 26.273 4 0" fill="none" stroke="#020064" stroke-linecap="round" stroke-linejoin="round" stroke-width="1"></path>
  <path d="m50.101 26.273 0.8 0" fill="none" stroke="#020064" stroke-linecap="round" stroke-linejoin="round" stroke-width="1"></path>
  <path d="M46.9 70.922a0.157 0.157 0 0 1 0.155 0.155 0.155 0.155 0 0 1 -0.31 0 0.155 0.155 0 0 1 0.155 -0.155m0 -1a1.155 1.155 0 1 0 0.816 0.338 1.154 1.154 0 0 0 -0.816 -0.338Z" fill="#020064" stroke-width="1"></path>
  <path d="M35.362 51.52a11.495 11.495 0 1 0 22.99 0 11.495 11.495 0 1 0 -22.99 0Z" fill="#ffffff" stroke="#020064" stroke-linecap="round" stroke-linejoin="round" stroke-width="1"></path>
  <path d="M39.194 51.52a7.663 7.663 0 1 0 15.326 0 7.663 7.663 0 1 0 -15.326 0Z" fill="#b0d9ff" stroke="#020064" stroke-linecap="round" stroke-linejoin="round" stroke-width="1"></path>
  <path d="M43.025 51.52a3.832 3.832 0 1 0 7.664 0 3.832 3.832 0 1 0 -7.664 0Z" fill="#ffffff" stroke="#020064" stroke-linecap="round" stroke-linejoin="round" stroke-width="1"></path>
  <path d="M61.713 29.362a12.613 12.613 0 0 0 -3.184 9.185 12.866 12.866 0 0 0 8.719 -4.18l2.131 -2.267 -3.779 -1.4 -1.774 -3.623Z" fill="#b0d9ff" stroke-width="1"></path>
  <path d="m65.6 30.7 -1.774 -3.623 -2.11 2.287a12.613 12.613 0 0 0 -3.184 9.185Z" fill="#ffffff" stroke-width="1"></path>
  <path d="M61.713 29.362a12.613 12.613 0 0 0 -3.184 9.185 12.866 12.866 0 0 0 8.719 -4.18l2.131 -2.267 -3.779 -1.4 -1.774 -3.623Z" fill="none" stroke="#020064" stroke-linecap="round" stroke-linejoin="round" stroke-width="1"></path>
  <path d="M65.597 30.698 46.857 51.52" fill="none" stroke="#020064" stroke-linecap="round" stroke-linejoin="round" stroke-width="1"></path>
</svg>