<svg viewBox="0 0 100 100" xmlns="http://www.w3.org/2000/svg" id="Card-Secure-3--Streamline-Ux">
  <desc>
    Card Secure 3 Streamline Illustration: https://streamlinehq.com
  </desc>
  <path d="m17.935 39.704 11.903 0 0 7.935 -11.903 0Z" fill="none" stroke="#020064" stroke-linecap="round" stroke-linejoin="round" stroke-width="1"></path>
  <path d="m23.885 55.573 0 3.968" fill="none" stroke="#020064" stroke-linecap="round" stroke-linejoin="round" stroke-width="1"></path>
  <path d="m27.853 55.573 0 3.968" fill="none" stroke="#020064" stroke-linecap="round" stroke-linejoin="round" stroke-width="1"></path>
  <path d="m31.821 55.573 0 3.968" fill="none" stroke="#020064" stroke-linecap="round" stroke-linejoin="round" stroke-width="1"></path>
  <path d="m39.756 55.573 0 3.968" fill="none" stroke="#020064" stroke-linecap="round" stroke-linejoin="round" stroke-width="1"></path>
  <path d="m43.722 55.573 0 3.968" fill="none" stroke="#020064" stroke-linecap="round" stroke-linejoin="round" stroke-width="1"></path>
  <path d="m55.218 55.573 0 3.968" fill="none" stroke="#020064" stroke-linecap="round" stroke-linejoin="round" stroke-width="1"></path>
  <path d="m17.935 27.801 33.315 0 0 7.934 -33.315 0Z" fill="none" stroke="#020064" stroke-linecap="round" stroke-linejoin="round" stroke-width="1"></path>
  <path d="M62.148 39.712a4.959 4.959 0 0 1 6.306 0.273" fill="none" stroke="#020064" stroke-linecap="round" stroke-linejoin="round" stroke-width="1"></path>
  <path d="m57.202 43.67 3.14 0" fill="none" stroke="#020064" stroke-linecap="round" stroke-linejoin="round" stroke-width="1"></path>
  <path d="M55.217 65.491H13.306A3.306 3.306 0 0 1 10 62.185V25.156a3.306 3.306 0 0 1 3.306 -3.306h58.443a3.306 3.306 0 0 1 3.306 3.306v14.829" fill="none" stroke="#020064" stroke-linecap="round" stroke-linejoin="round" stroke-width="1"></path>
  <path d="M58.172 48.254v11.575a18.66 18.66 0 0 0 12.457 17.382l1.7 0.626a5.086 5.086 0 0 0 3.516 0l1.7 -0.626A18.66 18.66 0 0 0 90 59.829V48.254a2.321 2.321 0 0 0 -1.416 -2.13 38.514 38.514 0 0 0 -29 0 2.32 2.32 0 0 0 -1.412 2.13Z" fill="none" stroke="#020064" stroke-linecap="round" stroke-linejoin="round" stroke-width="1"></path>
  <path d="M83.061 59.029A2.066 2.066 0 0 0 81 56.962h-4.847V52.12a2.067 2.067 0 0 0 -4.133 0v4.842h-4.842a2.067 2.067 0 1 0 0 4.133h4.842v4.842a2.067 2.067 0 1 0 4.133 0V61.1H81a2.066 2.066 0 0 0 2.061 -2.071Z" fill="none" stroke="#020064" stroke-linecap="round" stroke-linejoin="round" stroke-width="1"></path>
  <path d="M55.139 46.624a4.96 4.96 0 1 1 8.415 -5.2" fill="none" stroke="#020064" stroke-linecap="round" stroke-linejoin="round" stroke-width="1"></path>
  <path d="M29.761 40.859a1.973 1.973 0 0 0 0.076 -0.546 1.983 1.983 0 0 1 1.984 -1.984H33.8a1.984 1.984 0 0 0 1.983 -1.935v-0.609" fill="none" stroke="#020064" stroke-linecap="round" stroke-linejoin="round" stroke-width="1"></path>
  <path d="M33.8 27.8a5.951 5.951 0 0 1 -5.951 -5.951H13.306A3.306 3.306 0 0 0 10 25.156v16.531a3.967 3.967 0 0 0 3.966 3.967 1.984 1.984 0 0 1 1.985 1.984v3.968a1.983 1.983 0 0 0 1.984 1.983 1.984 1.984 0 0 1 1.984 1.984v1.984a3.966 3.966 0 0 0 3.966 3.967 3.968 3.968 0 0 1 3.968 3.967h11.9v-3.967a7.935 7.935 0 0 0 -7.935 -7.935 1.983 1.983 0 0 1 -1.984 -1.983 1.374 1.374 0 0 0 -1.374 -1.375h-2.591a3.967 3.967 0 0 1 -3.721 -2.593" fill="none" stroke="#020064" stroke-linecap="round" stroke-linejoin="round" stroke-width="1"></path>
  <path d="M50.274 35.641a7.937 7.937 0 0 0 6.044 4.014" fill="none" stroke="#020064" stroke-linecap="round" stroke-linejoin="round" stroke-width="1"></path>
  <path d="M59.185 21.85a1.983 1.983 0 0 0 -1.985 1.983 4.959 4.959 0 0 1 -4.959 4.959 2.966 2.966 0 0 0 -1.074 0.2" fill="none" stroke="#020064" stroke-linecap="round" stroke-linejoin="round" stroke-width="1"></path>
  <path d="M55.218 65.491a5.952 5.952 0 0 0 -5.952 -5.9h0a1.983 1.983 0 0 1 -1.982 -1.984h0a5.95 5.95 0 0 1 5.95 -5.951h1.308" fill="none" stroke="#020064" stroke-linecap="round" stroke-linejoin="round" stroke-width="1"></path>
</svg>